<svg id="图层_1" data-name="图层 1" xmlns="http://www.w3.org/2000/svg" viewBox="0 0 36 36"><defs><style>.cls-1{fill:gray;}</style></defs><title>HBSQI_icon_gallery_IX</title><path class="cls-1" d="M22.37,22.92H20.11v2.29h2.26Zm-3.18-6.1H16.93V19.1h2.26Zm3.18,3.05H20.11v2.28h2.26Zm3.19-3.05H23.3V19.1h2.26Zm-6.37,3.05H16.93v2.28h2.26Zm3.18-3.05H20.11V19.1h2.26Zm3.19,3.05H23.3v2.28h2.26ZM12.82,22.92H10.56v2.29h2.26Zm0-3.05H10.56v2.28h2.26ZM25,8.77v1a1.88,1.88,0,1,1-2.49,0v-1H13.69v1a1.89,1.89,0,1,1-2.49,0v-1H7V29H29V8.77ZM27,27H9V14.33H27ZM16,16.82H13.74V19.1H16Zm0,6.1H13.74v2.29H16Zm3.18,0H16.93v2.29h2.26ZM16,19.87H13.74v2.28H16ZM12.44,12.3a.94.94,0,0,0,.94-.94V8A.94.94,0,1,0,11.5,8v3.41A.94.94,0,0,0,12.44,12.3Zm11.29,0a.94.94,0,0,0,.94-.94V8a.94.94,0,1,0-1.88,0v3.41A.94.94,0,0,0,23.73,12.3Z"/></svg>