<svg id="图层_1" data-name="图层 1" xmlns="http://www.w3.org/2000/svg" viewBox="0 0 36 36"><defs><style>.cls-1{fill:gray;}</style></defs><title>HBSQI_icon_gallery_IX</title><path class="cls-1" d="M18,19.35,29.18,10A.58.58,0,0,0,29,10H7a.58.58,0,0,0-.18,0Z"/><path class="cls-1" d="M30,11a1,1,0,0,0-.06-.3L22,17.31,30,25.24A.93.93,0,0,0,30,25Z"/><path class="cls-1" d="M6.06,10.7A1,1,0,0,0,6,11V25a.93.93,0,0,0,0,.24L14,17.31Z"/><path class="cls-1" d="M21.24,18l-2.92,2.43a.47.47,0,0,1-.32.12.49.49,0,0,1-.32-.12L14.76,18l-8,8A1,1,0,0,0,7,26H29a1,1,0,0,0,.25-.05Z"/></svg>