<svg id="图层_1" data-name="图层 1" xmlns="http://www.w3.org/2000/svg" viewBox="0 0 36 36"><defs><style>.cls-1{fill:gray;}</style></defs><title>HBSQI_icon_gallery_IX</title><path class="cls-1" d="M28.62,16.23H27.55a1.27,1.27,0,0,1-1.14-.85L25.8,13.9A1.25,1.25,0,0,1,26,12.5l.75-.75a.91.91,0,0,0,0-1.26L25.51,9.24a.91.91,0,0,0-1.26,0L23.5,10a1.27,1.27,0,0,1-1.4.2l-1.48-.61a1.27,1.27,0,0,1-.85-1.14V7.39a.89.89,0,0,0-.88-.89H17.12a.89.89,0,0,0-.89.89V8.45a1.28,1.28,0,0,1-.84,1.14l-1.48.61A1.28,1.28,0,0,1,12.5,10l-.75-.76a.89.89,0,0,0-1.25,0L9.24,10.49a.89.89,0,0,0,0,1.25l.76.76a1.25,1.25,0,0,1,.2,1.4l-.61,1.49a1.28,1.28,0,0,1-1.14.84H7.39a.89.89,0,0,0-.89.88v1.77a.89.89,0,0,0,.89.89H8.45a1.27,1.27,0,0,1,1.14.85l.61,1.48a1.26,1.26,0,0,1-.2,1.4l-.76.75a.91.91,0,0,0,0,1.26l1.26,1.25a.89.89,0,0,0,1.25,0L12.5,26a1.25,1.25,0,0,1,1.4-.21l1.49.61a1.28,1.28,0,0,1,.84,1.15v1.06a.89.89,0,0,0,.89.88h1.77a.89.89,0,0,0,.88-.88V27.56a1.27,1.27,0,0,1,.85-1.15l1.48-.61a1.25,1.25,0,0,1,1.4.21l.75.75a.91.91,0,0,0,1.26,0l1.25-1.25a.91.91,0,0,0,0-1.26L26,23.5a1.25,1.25,0,0,1-.21-1.4l.61-1.48a1.27,1.27,0,0,1,1.14-.85h1.07a.89.89,0,0,0,.88-.88V17.11A.89.89,0,0,0,28.62,16.23ZM22.43,18A4.43,4.43,0,1,1,18,13.58,4.42,4.42,0,0,1,22.43,18Z"/></svg>