<svg id="图层_1" data-name="图层 1" xmlns="http://www.w3.org/2000/svg" viewBox="0 0 36 36"><defs><style>.cls-1{fill:gray;}</style></defs><title>HBSQI_icon_gallery_IX</title><path class="cls-1" d="M17.76,16h0a.18.18,0,0,1,0-.06Zm4.61,5Zm.12,0s-.09,0-.12,0S22.38,21.07,22.49,21ZM18,6A12,12,0,1,0,30,18,12,12,0,0,0,18,6Zm7.66,4.69a1.65,1.65,0,0,0-1,.24,1.33,1.33,0,0,1-.39.26c-.15,0-.32,0-.47.06-.55.18-.46,1.35-1.18,1.18-.34-.09-.57-.49-.74-.75s-.42-.41-.24-.7c-.08,0-.17,0-.26,0,.12-.25.5-.23.57-.36.16-.32-.44-.36-.61-.4.2-.22.31.07.51,0s-.1-.3-.22-.33-.73.19-.33-.16L19.8,8.82c-.08.35.65.54.89.67,0,.14-.26.35-.43.29s-.09-.33-.34-.3c-.17.4.37.28.42.53s-.2.16-.3.16-.21-.2-.22-.05.29.11.31.28a1.18,1.18,0,0,1-.83-.31,1.35,1.35,0,0,0-.95-.21,1.86,1.86,0,0,0,.41-.17,2.3,2.3,0,0,0,.31-.32c.06-.22,0-.2-.21-.34a2.24,2.24,0,0,0-.63-.4c-.81-.16-.25.73-.86.85h0c-.14,0-.41,0-.5,0s-.07.26-.14.34-.32.16-.48.26a2.09,2.09,0,0,0-.56.51c-.33.62.73.81,1.12,1,.18.08.71.19.81.33s-.11.36.16.48a.32.32,0,0,0,.34,0c.13-.14-.05-.17-.08-.33-.05-.31,0-.19.2-.3.31-.23.24-.25.13-.62-.06-.17-.25-.65-.08-.78s.71.09.89.11.32.31.43.42.2.24.33.23.12-.21.24-.29c.31-.22.4.08.53.37a1.26,1.26,0,0,0,.44.57c.1.08.53.38.49.57s-.52.31-.65.35c-.48.15-1.39-.25-1.48.52.18-.07.71-.51.87-.3s-.06.23,0,.32c.09.28.3.18.53.14l-.05,0c.3-.16.27-.12.41-.38a3.84,3.84,0,0,1,.18-.35c.23-.2.26-.06.4.1s.38.53.25.51a1.4,1.4,0,0,0-1.1.15,3,3,0,0,1-.6.37c-.05,0-.46.06-.41,0s.31-.16.4-.27c-.26-.11-.48.13-.68.27s-.27.29-.46.46-.23.09-.31.19-.09.24-.16.33-.19,0-.24.12.07.23,0,.32-.36.3-.48.42l.05-.05a2,2,0,0,0-.36.36,3.3,3.3,0,0,1,.13.79c-.12.37-.36-.2-.45-.34-.33-.5-1-.17-1.45-.13a1,1,0,0,0-.79,1.42A.7.7,0,0,0,16,18c.29-.06.38-.47.66-.48.51,0,0,.5,0,.68s.06.2.24.24.32-.06.44,0,.07.31.17.23a.46.46,0,0,0,.05.68c.22.16.48,0,.72.07.44.12.23,0,.61-.26s.31,0,.49,0,.19-.18.4-.13.23.17.43.2.16,0,.24,0a2,2,0,0,1,.93.48c.24.18.4.14.67.22s.58.35.56.61c0,.05-.18.28-.21.38a2.06,2.06,0,0,0,.52,0s-.28.22-.28.12c0,.05.17.15.21.18.13-.42.34-.15.6,0a5.25,5.25,0,0,0,.71.15,2,2,0,0,1,.77.34c.17.19.05.5-.08.69s-.42.35-.52.64a3.41,3.41,0,0,0-.07.73c-.07.35-.12.22-.34.44s0,.15-.26.26-.49.08-.67.37c0,0,0,0,0-.06s-.11.33-.15.4a1.83,1.83,0,0,1-.35.45c-.06,0-.56.74-.59.69s-.44.07-.46,0c0,.08,0,0,.1.1-.09.57-.33.65-.89.66.05.27-.2.22-.32.36a2.83,2.83,0,0,0-.14.44,3.77,3.77,0,0,0-.25.41c0,.05.07.12.14.19a11.55,11.55,0,0,1-1.2.17c.08-.1.1-.18-.14-.2.06-.17.21-.27.28-.44s0-.12,0-.19c.09-.28,0-.18,0-.39-.12-.5,0-.64.18-1.1s.12-1.08.22-1.59a2.49,2.49,0,0,0,0-1c-.09-.25-.51-.46-.7-.63a4.11,4.11,0,0,1-.62-.82,4.8,4.8,0,0,1-.3-.48c-.17-.36,0-.14,0-.36a2.54,2.54,0,0,1,.06-.6c.09-.24.31-.39.39-.63a.42.42,0,0,0-.21-.55c-.12,0-.25.05-.38,0a1.41,1.41,0,0,1-.5-.26c-.19-.14-.26-.38-.46-.51s-.29-.05-.46-.1-.31-.29-.46-.36-.35.05-.59,0a4.59,4.59,0,0,1-.71-.34,1.26,1.26,0,0,1-.77-.76,2.94,2.94,0,0,0-.55-.77c-.24-.29-.31-.53-.66-.6,0,0,.09.29.1.32a7.37,7.37,0,0,0,.47.67c.22.32.13.38-.1.07s-.57-.71-.79-1.09c-.09-.14-.07-.23-.22-.37s-.31-.19-.45-.32A1.86,1.86,0,0,1,11,13.58,2.21,2.21,0,0,0,11.1,13a.73.73,0,0,0-.25-.42l-.14-.23a1.92,1.92,0,0,0-.38-.53l-.62-.47A10.7,10.7,0,0,1,14,8.16a.62.62,0,0,0,.11.25c.14.21.27.19.54.25,0,.31-.4.32-.64.28s-.61-.14-.87.12c.14.09.53.42.48.07a5.89,5.89,0,0,1,.84,0c.11,0,.48.14.58.09s.09-.24.13-.3a1.75,1.75,0,0,0-.24,0c.19-.24.37-.05.6,0-.25.16-.1.54.15.23s-.05-.43-.31-.58c.26-.33.43-.36.68,0,0-.23.22-.13.42-.12V8.43c-.09,0-.18,0-.26,0,.19-.32.07-.39.35-.5s.87,0,.95-.21A5.08,5.08,0,0,0,16.1,8c-.18.09-.39.37-.56.19s.13-.49.28-.58h0A10.69,10.69,0,0,1,18,7.38a9.77,9.77,0,0,1,1.44.1c-.16.08,0,.14-.16.23a3.88,3.88,0,0,1-.9.41c.34,0,1.18.32,1.34-.16l-.33,0a2.53,2.53,0,0,1,.68-.33,10.64,10.64,0,0,1,5.63,3.11Zm1.95,4.21s.06-.06.08-.09,0-.12.08-.19a2.14,2.14,0,0,1,.19-.13l0-.06A9.76,9.76,0,0,1,28.42,16v0a.93.93,0,0,1-.23,0,.4.4,0,0,1-.3-.15,1.37,1.37,0,0,1-.26-.28c-.07-.11,0-.22,0-.34S27.56,15,27.61,14.9Zm.13,5.5a3.65,3.65,0,0,1-.59-.65c-.16-.25-.06-.5,0-.78s-.11-.58,0-.8.16-.13.2-.21.07-.28.19-.43.29-.19.42-.31.14-.24.23-.4a1.6,1.6,0,0,1,.37-.43,10.84,10.84,0,0,1-.23,4.34A1.35,1.35,0,0,1,27.74,20.4Z"/></svg>